# xmcd
#
# Track frame offsets: 
#        150
#        15923
#        33767
#        52474
#        66612
#        82155
#        98636
#        114579
#        141756
#        158029
#        176375
#        191477
#
# Disc length: 2761 seconds
#
# Revision: 5
# Processed by: cddbd v1.5.2PL0 Copyright (c) Steve Scherf et al.
# Submitted via: ExactAudioCopyFreeDBPlugin 1.0
#
DISCID=9e0ac70c
DTITLE=Die Prinzen - Die neuen Männer
DYEAR=2008
DGENRE=Pop
TTITLE0=Frauen sind die neuen Männer
TTITLE1=Monster
TTITLE2=Immer anderer Meinung
TTITLE3=Warum ausgerechnet ich
TTITLE4=Leben strengt an
TTITLE5=Aufgehört
TTITLE6=Nie wieder Liebeslieder
TTITLE7=My Friend
TTITLE8=Be Cool Speak Deutsch
TTITLE9=Angst, dass Du gehst
TTITLE10=Biste dabei
TTITLE11=Zurück ins Paradies
EXTD=YEAR: 2008
EXTT0=
EXTT1=
EXTT2=
EXTT3=
EXTT4=
EXTT5=
EXTT6=
EXTT7=
EXTT8=
EXTT9=
EXTT10=
EXTT11=
PLAYORDER=
